G04 EAGLE Gerber RS-274X export*
G75*
%MOMM*%
%FSLAX34Y34*%
%LPD*%
%IN*%
%IPPOS*%
%AMOC8*
5,1,8,0,0,1.08239X$1,22.5*%
G01*
%ADD10C,0.254000*%


D10*
X0Y0D02*
X582800Y0D01*
X582800Y192000D01*
X0Y192000D01*
X0Y0D01*
X15000Y179719D02*
X14937Y179161D01*
X14812Y178614D01*
X14627Y178084D01*
X14383Y177578D01*
X14084Y177102D01*
X13734Y176663D01*
X13337Y176266D01*
X12898Y175916D01*
X12422Y175617D01*
X11916Y175373D01*
X11386Y175188D01*
X10839Y175063D01*
X10281Y175000D01*
X9719Y175000D01*
X9161Y175063D01*
X8614Y175188D01*
X8084Y175373D01*
X7578Y175617D01*
X7102Y175916D01*
X6663Y176266D01*
X6266Y176663D01*
X5916Y177102D01*
X5617Y177578D01*
X5373Y178084D01*
X5188Y178614D01*
X5063Y179161D01*
X5000Y179719D01*
X5000Y180281D01*
X5063Y180839D01*
X5188Y181386D01*
X5373Y181916D01*
X5617Y182422D01*
X5916Y182898D01*
X6266Y183337D01*
X6663Y183734D01*
X7102Y184084D01*
X7578Y184383D01*
X8084Y184627D01*
X8614Y184812D01*
X9161Y184937D01*
X9719Y185000D01*
X10281Y185000D01*
X10839Y184937D01*
X11386Y184812D01*
X11916Y184627D01*
X12422Y184383D01*
X12898Y184084D01*
X13337Y183734D01*
X13734Y183337D01*
X14084Y182898D01*
X14383Y182422D01*
X14627Y181916D01*
X14812Y181386D01*
X14937Y180839D01*
X15000Y180281D01*
X15000Y179719D01*
X575000Y179719D02*
X574937Y179161D01*
X574812Y178614D01*
X574627Y178084D01*
X574383Y177578D01*
X574084Y177102D01*
X573734Y176663D01*
X573337Y176266D01*
X572898Y175916D01*
X572422Y175617D01*
X571916Y175373D01*
X571386Y175188D01*
X570839Y175063D01*
X570281Y175000D01*
X569719Y175000D01*
X569161Y175063D01*
X568614Y175188D01*
X568084Y175373D01*
X567578Y175617D01*
X567102Y175916D01*
X566663Y176266D01*
X566266Y176663D01*
X565916Y177102D01*
X565617Y177578D01*
X565373Y178084D01*
X565188Y178614D01*
X565063Y179161D01*
X565000Y179719D01*
X565000Y180281D01*
X565063Y180839D01*
X565188Y181386D01*
X565373Y181916D01*
X565617Y182422D01*
X565916Y182898D01*
X566266Y183337D01*
X566663Y183734D01*
X567102Y184084D01*
X567578Y184383D01*
X568084Y184627D01*
X568614Y184812D01*
X569161Y184937D01*
X569719Y185000D01*
X570281Y185000D01*
X570839Y184937D01*
X571386Y184812D01*
X571916Y184627D01*
X572422Y184383D01*
X572898Y184084D01*
X573337Y183734D01*
X573734Y183337D01*
X574084Y182898D01*
X574383Y182422D01*
X574627Y181916D01*
X574812Y181386D01*
X574937Y180839D01*
X575000Y180281D01*
X575000Y179719D01*
X575000Y9719D02*
X574937Y9161D01*
X574812Y8614D01*
X574627Y8084D01*
X574383Y7578D01*
X574084Y7102D01*
X573734Y6663D01*
X573337Y6266D01*
X572898Y5916D01*
X572422Y5617D01*
X571916Y5373D01*
X571386Y5188D01*
X570839Y5063D01*
X570281Y5000D01*
X569719Y5000D01*
X569161Y5063D01*
X568614Y5188D01*
X568084Y5373D01*
X567578Y5617D01*
X567102Y5916D01*
X566663Y6266D01*
X566266Y6663D01*
X565916Y7102D01*
X565617Y7578D01*
X565373Y8084D01*
X565188Y8614D01*
X565063Y9161D01*
X565000Y9719D01*
X565000Y10281D01*
X565063Y10839D01*
X565188Y11386D01*
X565373Y11916D01*
X565617Y12422D01*
X565916Y12898D01*
X566266Y13337D01*
X566663Y13734D01*
X567102Y14084D01*
X567578Y14383D01*
X568084Y14627D01*
X568614Y14812D01*
X569161Y14937D01*
X569719Y15000D01*
X570281Y15000D01*
X570839Y14937D01*
X571386Y14812D01*
X571916Y14627D01*
X572422Y14383D01*
X572898Y14084D01*
X573337Y13734D01*
X573734Y13337D01*
X574084Y12898D01*
X574383Y12422D01*
X574627Y11916D01*
X574812Y11386D01*
X574937Y10839D01*
X575000Y10281D01*
X575000Y9719D01*
X15000Y9719D02*
X14937Y9161D01*
X14812Y8614D01*
X14627Y8084D01*
X14383Y7578D01*
X14084Y7102D01*
X13734Y6663D01*
X13337Y6266D01*
X12898Y5916D01*
X12422Y5617D01*
X11916Y5373D01*
X11386Y5188D01*
X10839Y5063D01*
X10281Y5000D01*
X9719Y5000D01*
X9161Y5063D01*
X8614Y5188D01*
X8084Y5373D01*
X7578Y5617D01*
X7102Y5916D01*
X6663Y6266D01*
X6266Y6663D01*
X5916Y7102D01*
X5617Y7578D01*
X5373Y8084D01*
X5188Y8614D01*
X5063Y9161D01*
X5000Y9719D01*
X5000Y10281D01*
X5063Y10839D01*
X5188Y11386D01*
X5373Y11916D01*
X5617Y12422D01*
X5916Y12898D01*
X6266Y13337D01*
X6663Y13734D01*
X7102Y14084D01*
X7578Y14383D01*
X8084Y14627D01*
X8614Y14812D01*
X9161Y14937D01*
X9719Y15000D01*
X10281Y15000D01*
X10839Y14937D01*
X11386Y14812D01*
X11916Y14627D01*
X12422Y14383D01*
X12898Y14084D01*
X13337Y13734D01*
X13734Y13337D01*
X14084Y12898D01*
X14383Y12422D01*
X14627Y11916D01*
X14812Y11386D01*
X14937Y10839D01*
X15000Y10281D01*
X15000Y9719D01*
M02*
